<svg xmlns="http://www.w3.org/2000/svg" viewBox="0 0 1680 1059" preserveAspectRatio="xMidYMid" width="1680" height="1059" xmlns:xlink="http://www.w3.org/1999/xlink" style="shape-rendering:auto;display:block;background-position-x:0%;background-position-y:0%;background-size:auto;background-origin:padding-box;background-clip:border-box;background:scroll rgb(255, 255, 255) none  repeat;width:1680px;height:1059px;;animation:none"><g><linearGradient y2="0" y1="0" x2="1" x1="0" id="lg-v2k2ttfbvqj"><stop offset="0" stop-color="#ff00ff"></stop>

  
<stop offset="1" stop-color="#00ffff"></stop></linearGradient>
<path opacity="0.4" fill="url(#lg-v2k2ttfbvqj)" d="M 0 0 L 0 438.75 Q 280 446.35 560 432.65 T 1120 155.37 T 1680 178.63 L 1680 0 Z" style="fill:url('#lg-v2k2ttfbvqj');opacity:0.4;;animation:none"></path>
<path opacity="0.4" fill="url(#lg-v2k2ttfbvqj)" d="M 0 0 L 0 496.13 Q 280 397.649 560 378.499 T 1120 287.703 T 1680 123.79 L 1680 0 Z" style="fill:url('#lg-v2k2ttfbvqj');opacity:0.4;;animation:none"></path>
<path opacity="0.4" fill="url(#lg-v2k2ttfbvqj)" d="M 0 0 L 0 492.188 Q 280 496.315 560 471.076 T 1120 216.685 T 1680 81.7506 L 1680 0 Z" style="fill:url('#lg-v2k2ttfbvqj');opacity:0.4;;animation:none"></path>
<path opacity="0.4" fill="url(#lg-v2k2ttfbvqj)" d="M 0 0 L 0 476.67 Q 280 369.457 560 350.231 T 1120 260.265 T 1680 197.458 L 1680 0 Z" style="fill:url('#lg-v2k2ttfbvqj');opacity:0.4;;animation:none"></path>
<path opacity="0.4" fill="url(#lg-v2k2ttfbvqj)" d="M 0 0 L 0 559.152 Q 280 428.329 560 402.383 T 1120 204.984 T 1680 123.977 L 1680 0 Z" style="fill:url('#lg-v2k2ttfbvqj');opacity:0.4;;animation:none"></path>
<g></g></g><!-- [ldio] generated by https://loading.io --></svg>